<svg xmlns="http://www.w3.org/2000/svg" version="1.1" xmlns:xlink="http://www.w3.org/1999/xlink" width="1000" height="1000"><metadata><rdf:RDF xmlns:rdf="http://www.w3.org/1999/02/22-rdf-syntax-ns#" xmlns:dc="http://purl.org/dc/elements/1.1/"><rdf:Description><dc:creator>RealFaviconGenerator</dc:creator><dc:source>https://realfavicongenerator.net</dc:source></rdf:Description></rdf:RDF></metadata><g clip-path="url(#SvgjsClipPath1402)"><g transform="matrix(1.25,0,0,1.25,0,0)"><svg xmlns="http://www.w3.org/2000/svg" width="800" height="800" viewBox="0 0 800 800" fill="none"><path d="M46.3594 446.922V426.25C46.5547 424.968 46.8171 423.674 46.9758 422.362C48.6421 409.514 49.5943 396.507 52.109 383.837C60.6661 340.881 78.0918 301.482 101.962 264.971C149.715 191.943 213.864 137.536 292.134 99.659C344.251 74.4636 399.098 59.6137 457.368 58.7527C478.285 58.4353 499.024 59.9429 519.637 63.8126C560.787 71.564 597.073 89.5454 629.207 116.114C658.62 140.43 682.076 169.905 701.973 202.259C733.87 254.17 750.875 310.75 753.481 371.572C755.08 408.681 745.742 519.974 720.79 569.056C722.444 636.458 724.953 727.15 564.071 715.516C517.946 735.261 400.103 750.452 328.962 734.833C296.693 727.777 265.393 717.822 236.096 702.283C198.315 682.288 165.65 655.561 136.237 624.836C117.182 604.939 98.5355 584.633 85.6871 559.852C85.2782 559.083 84.68 558.393 84.1673 557.673C64.1423 530.048 52.4345 499.201 48.3329 465.388C47.5822 459.254 47.0268 453.09 46.3737 446.932M71.9721 439.901C71.667 439.925 71.374 439.937 71.0749 439.98C72.6252 453.512 73.4552 467.165 75.8112 480.569C82.1038 516.275 97.4596 547.725 121.808 574.63C146.149 601.529 176.099 619.705 210.406 630.893C249.121 643.533 288.891 646.005 329.138 642.013C360.73 638.907 391.363 631.454 421.094 620.334C488.88 594.962 547.01 555.27 595.625 501.766C625.735 468.656 649.886 431.601 666.688 389.987C684.564 345.731 692.872 300.051 686.305 252.298C682.496 224.588 673.366 198.721 658.277 175.107C632.166 134.299 595.191 107.756 549.506 92.9539C507.674 79.4102 464.827 77.5853 421.51 83.1883C391.163 87.0824 361.769 94.9254 333.264 106.059C278.705 127.323 230.328 158.36 187.946 198.649C147.375 237.205 115.222 281.749 93.9752 333.757C80.102 367.741 72.1252 403.02 71.9721 439.904" fill="#8AE500"></path><path d="M400.922 327.313C476.697 309.222 551.617 291.32 626.953 273.352C626.801 292.211 624.121 310.358 619.348 328.155C609.216 366.052 591.393 400.122 567.811 431.823C512.361 397.094 456.965 362.408 400.92 327.313" fill="#70FFD9"></path><path d="M552.828 450.61C518.239 490.569 477.553 522.228 430.648 546.697C416.433 479.436 402.322 412.694 388.028 345.103C443.344 380.528 497.953 415.47 552.825 450.603" fill="#8AE500"></path><path d="M275.734 585.547C305.886 506.872 335.836 428.703 365.805 350.547H366.421C367.501 355.57 368.576 360.605 369.595 365.629C379.348 413.505 389.078 461.363 398.818 509.232C401.907 524.417 404.952 539.604 408.108 554.794C408.462 556.528 408.126 557.382 406.454 558.084C382.113 568.411 357.008 576.261 330.935 580.881C313.955 583.914 296.858 585.52 279.616 585.55L275.734 585.556L275.734 585.547Z" fill="#70FFD9"></path><path d="M153.078 543.531C217.495 480.275 281.642 417.231 345.781 354.234C346.007 354.363 346.215 354.479 346.428 354.613C346.08 355.559 345.738 356.523 345.36 357.469C314.257 431.847 283.171 506.243 252.116 580.641C251.256 582.68 250.511 583.931 247.874 583.559C216.99 579.323 188.176 569.649 162.67 551.246C160.057 549.391 157.586 547.328 155.053 545.326C154.461 544.868 153.93 544.306 153.075 543.537" fill="#8AE500"></path><path d="M359.641 288.734C329.544 243 305.978 207.18 276.041 161.695C298.587 148.298 322.067 137.361 346.731 128.931C371.444 120.502 396.712 114.783 423.348 112.512C404.134 174.408 378.952 226.562 359.641 288.731" fill="#8AE500"></path><path d="M624.984 249.25C550.363 269.185 475.936 289.069 401.5 308.942C401.366 308.778 401.262 308.57 401.146 308.405C460.038 257.844 518.938 207.276 577.771 156.733C600.024 172.883 625.305 222.39 624.994 249.251" fill="#8AE500"></path><path d="M255.875 174.328C283.42 216.205 310.691 257.623 338.486 299.878C275.455 292.407 213.272 285.053 150.486 277.606C179.136 236.041 214.5 202.369 255.881 174.328" fill="#70FFD9"></path><path d="M558.859 141.703C503.202 192.375 448.044 242.631 392.875 292.875C392.71 292.783 392.552 292.692 392.381 292.6C394.608 285.38 396.812 278.153 399.058 270.921C415.244 218.913 431.444 166.868 447.531 114.835C448.349 112.271 449.344 111.435 452.091 111.49C487.484 112.168 521.134 119.455 552.017 137.473C554.172 138.742 556.296 140.122 558.853 141.703" fill="#70FFD9"></path><path d="M101.75 446.828C178.709 411.758 255.394 376.809 332.078 341.842C332.194 341.995 332.328 342.16 332.45 342.294C267.13 403.664 201.829 465.017 136.216 526.669C116.679 503.427 105.729 476.833 101.755 446.822" fill="#70FFD9"></path><path d="M329.078 323.469C318.202 328.15 307.338 332.819 296.473 337.483C293.104 338.941 289.772 340.424 286.36 341.694C285.572 341.999 134.022 407.088 100.094 421.631C100.723 413.813 100.973 406.611 101.883 399.513C106.314 365.096 118.093 333.149 134.792 302.9C136.019 300.697 137.288 299.964 139.711 300.27C157.43 302.449 175.149 304.567 192.872 306.672C208.619 308.552 224.366 310.402 240.107 312.251C255.963 314.119 271.814 315.95 287.677 317.823C300.226 319.288 312.774 320.802 325.324 322.303C326.538 322.462 327.723 322.676 328.919 322.865C328.968 323.066 329.016 323.262 329.071 323.469" fill="#8AE500"></path></svg></g></g><defs><clipPath id="SvgjsClipPath1402"><rect width="1000" height="1000" x="0" y="0" rx="500" ry="500"></rect></clipPath></defs></svg>